<mxfile host="app.diagrams.net" modified="2024-02-21T19:12:36.223Z" agent="Mozilla/5.0 (Windows NT 10.0; Win64; x64) AppleWebKit/537.36 (KHTML, like Gecko) Chrome/121.0.0.0 Safari/537.36" etag="KQ_orvLkFoP_4guyzLAn" version="23.1.5" type="google">
  <diagram id="rRmtudpdEV8kB-wlNoaQ" name="Page-1">
    <mxGraphModel dx="1503" dy="658" grid="1" gridSize="10" guides="1" tooltips="1" connect="1" arrows="1" fold="1" page="1" pageScale="1" pageWidth="827" pageHeight="1169" math="0" shadow="0">
      <root>
        <mxCell id="0" />
        <mxCell id="1" parent="0" />
        <mxCell id="OLgAGGB-klX2j8NWGAoB-3" value="" style="edgeStyle=orthogonalEdgeStyle;rounded=0;orthogonalLoop=1;jettySize=auto;html=1;" parent="1" source="tulF2AGn9xkQMnw531Gr-1" target="OLgAGGB-klX2j8NWGAoB-1" edge="1">
          <mxGeometry relative="1" as="geometry" />
        </mxCell>
        <mxCell id="tulF2AGn9xkQMnw531Gr-1" value="&lt;span style=&quot;&quot; lang=&quot;EN-US&quot;&gt;&lt;font style=&quot;font-size: 12px;&quot;&gt;Iniciar&lt;/font&gt;&lt;/span&gt;" style="rounded=1;whiteSpace=wrap;html=1;" parent="1" vertex="1">
          <mxGeometry x="380" y="359" width="120" height="40" as="geometry" />
        </mxCell>
        <mxCell id="G5POx0429s6_4OjcIg4M-41" style="edgeStyle=orthogonalEdgeStyle;rounded=0;orthogonalLoop=1;jettySize=auto;html=1;exitX=1;exitY=0.5;exitDx=0;exitDy=0;" edge="1" parent="1" source="tulF2AGn9xkQMnw531Gr-2">
          <mxGeometry relative="1" as="geometry">
            <mxPoint x="750" y="1230.3333333333335" as="targetPoint" />
          </mxGeometry>
        </mxCell>
        <mxCell id="tulF2AGn9xkQMnw531Gr-2" value="&lt;span style=&quot;&quot; lang=&quot;EN-US&quot;&gt;&lt;font style=&quot;font-size: 12px;&quot;&gt;Terminar&lt;/font&gt;&lt;/span&gt;" style="rounded=1;whiteSpace=wrap;html=1;" parent="1" vertex="1">
          <mxGeometry x="590" y="1210" width="110" height="40" as="geometry" />
        </mxCell>
        <mxCell id="G5POx0429s6_4OjcIg4M-30" style="edgeStyle=orthogonalEdgeStyle;rounded=0;orthogonalLoop=1;jettySize=auto;html=1;exitX=1;exitY=0.5;exitDx=0;exitDy=0;" edge="1" parent="1" source="tulF2AGn9xkQMnw531Gr-12">
          <mxGeometry relative="1" as="geometry">
            <mxPoint x="750" y="632.8333333333335" as="targetPoint" />
          </mxGeometry>
        </mxCell>
        <mxCell id="tulF2AGn9xkQMnw531Gr-12" value="Defina a velocidade para 30 km/h&amp;nbsp;" style="rounded=0;whiteSpace=wrap;html=1;" parent="1" vertex="1">
          <mxGeometry x="581.5" y="600" width="130" height="65" as="geometry" />
        </mxCell>
        <mxCell id="tGcxBd1fGb3jL6-7lItP-3" value="Complete o fluxograma para selecionar a velocidade média de movimento.&lt;br&gt;&lt;p style=&quot;font-style: normal ; font-weight: normal ; letter-spacing: normal ; text-align: center ; text-indent: 0px ; text-transform: none ; word-spacing: 0px ; text-decoration: none ; margin: 0px ; font-stretch: normal ; line-height: normal ; font-size: 13px&quot;&gt;&lt;span style=&quot;background-color: initial;&quot;&gt;&amp;nbsp;&lt;/span&gt;&lt;br&gt;&lt;/p&gt;&lt;font style=&quot;&quot;&gt;&lt;span style=&quot;font-size: 13px; font-style: normal; font-weight: normal; letter-spacing: normal; text-align: center; text-indent: 0px; text-transform: none; word-spacing: 0px; text-decoration: none; display: inline; float: none;&quot;&gt;&amp;nbsp;&lt;/span&gt;&lt;br style=&quot;font-style: normal ; font-weight: normal ; letter-spacing: normal ; text-align: center ; text-indent: 0px ; text-transform: none ; word-spacing: 0px ; text-decoration: none&quot;&gt;&lt;span style=&quot;text-align: center; text-indent: 0px; display: inline; float: none;&quot;&gt;&lt;span style=&quot;&quot; class=&quot;Apple-converted-space&quot;&gt;&lt;font style=&quot;&quot;&gt;Elementos podem ser copiados e preenchidos com os novos dados.&lt;br&gt;&lt;/font&gt;&lt;/span&gt;&lt;/span&gt;&lt;/font&gt;" style="ellipse;shape=doubleEllipse;whiteSpace=wrap;html=1;strokeWidth=2;fillColor=#dae8fc;" parent="1" vertex="1">
          <mxGeometry x="300" y="49" width="290" height="290" as="geometry" />
        </mxCell>
        <mxCell id="OLgAGGB-klX2j8NWGAoB-5" value="" style="edgeStyle=orthogonalEdgeStyle;rounded=0;orthogonalLoop=1;jettySize=auto;html=1;" parent="1" source="G5POx0429s6_4OjcIg4M-3" target="OLgAGGB-klX2j8NWGAoB-4" edge="1">
          <mxGeometry relative="1" as="geometry" />
        </mxCell>
        <mxCell id="OLgAGGB-klX2j8NWGAoB-7" value="" style="edgeStyle=orthogonalEdgeStyle;rounded=0;orthogonalLoop=1;jettySize=auto;html=1;" parent="1" source="OLgAGGB-klX2j8NWGAoB-1" target="OLgAGGB-klX2j8NWGAoB-6" edge="1">
          <mxGeometry relative="1" as="geometry" />
        </mxCell>
        <mxCell id="OLgAGGB-klX2j8NWGAoB-1" value="&lt;span style=&quot;&quot; lang=&quot;EN-US&quot;&gt;&lt;font style=&quot;font-size: 12px;&quot;&gt;São 00:01 - 8:00?&lt;/font&gt;&lt;/span&gt;" style="rhombus;whiteSpace=wrap;html=1;" parent="1" vertex="1">
          <mxGeometry x="379" y="439" width="121" height="80" as="geometry" />
        </mxCell>
        <mxCell id="OLgAGGB-klX2j8NWGAoB-2" value="" style="endArrow=classic;html=1;rounded=0;" parent="1" target="OLgAGGB-klX2j8NWGAoB-1" edge="1">
          <mxGeometry width="50" height="50" relative="1" as="geometry">
            <mxPoint x="440" y="399" as="sourcePoint" />
            <mxPoint x="440" y="439" as="targetPoint" />
          </mxGeometry>
        </mxCell>
        <mxCell id="G5POx0429s6_4OjcIg4M-7" value="" style="edgeStyle=orthogonalEdgeStyle;rounded=0;orthogonalLoop=1;jettySize=auto;html=1;" edge="1" parent="1" source="G5POx0429s6_4OjcIg4M-9" target="G5POx0429s6_4OjcIg4M-6">
          <mxGeometry relative="1" as="geometry" />
        </mxCell>
        <mxCell id="OLgAGGB-klX2j8NWGAoB-4" value="08:01-12:00" style="rhombus;whiteSpace=wrap;html=1;" parent="1" vertex="1">
          <mxGeometry x="380" y="600" width="121" height="80" as="geometry" />
        </mxCell>
        <mxCell id="G5POx0429s6_4OjcIg4M-28" style="edgeStyle=orthogonalEdgeStyle;rounded=0;orthogonalLoop=1;jettySize=auto;html=1;exitX=1;exitY=0.5;exitDx=0;exitDy=0;" edge="1" parent="1">
          <mxGeometry relative="1" as="geometry">
            <mxPoint x="750" y="1240" as="targetPoint" />
            <mxPoint x="680" y="477" as="sourcePoint" />
          </mxGeometry>
        </mxCell>
        <mxCell id="OLgAGGB-klX2j8NWGAoB-6" value="Defina a velocidade para 45 km/h" style="whiteSpace=wrap;html=1;" parent="1" vertex="1">
          <mxGeometry x="560" y="449" width="120" height="60" as="geometry" />
        </mxCell>
        <mxCell id="G5POx0429s6_4OjcIg4M-4" value="SIM" style="text;html=1;align=center;verticalAlign=middle;resizable=0;points=[];autosize=1;strokeColor=none;fillColor=none;" vertex="1" parent="1">
          <mxGeometry x="510" y="449" width="40" height="30" as="geometry" />
        </mxCell>
        <mxCell id="G5POx0429s6_4OjcIg4M-5" style="edgeStyle=orthogonalEdgeStyle;rounded=0;orthogonalLoop=1;jettySize=auto;html=1;exitX=1;exitY=0.5;exitDx=0;exitDy=0;entryX=-0.007;entryY=0.614;entryDx=0;entryDy=0;entryPerimeter=0;" edge="1" parent="1" source="OLgAGGB-klX2j8NWGAoB-4" target="tulF2AGn9xkQMnw531Gr-12">
          <mxGeometry relative="1" as="geometry" />
        </mxCell>
        <mxCell id="G5POx0429s6_4OjcIg4M-11" value="" style="edgeStyle=orthogonalEdgeStyle;rounded=0;orthogonalLoop=1;jettySize=auto;html=1;" edge="1" parent="1" source="G5POx0429s6_4OjcIg4M-6" target="G5POx0429s6_4OjcIg4M-10">
          <mxGeometry relative="1" as="geometry" />
        </mxCell>
        <mxCell id="G5POx0429s6_4OjcIg4M-13" value="" style="edgeStyle=orthogonalEdgeStyle;rounded=0;orthogonalLoop=1;jettySize=auto;html=1;" edge="1" parent="1" source="G5POx0429s6_4OjcIg4M-6" target="G5POx0429s6_4OjcIg4M-12">
          <mxGeometry relative="1" as="geometry" />
        </mxCell>
        <mxCell id="G5POx0429s6_4OjcIg4M-6" value="12:01-18:00" style="rhombus;whiteSpace=wrap;html=1;" vertex="1" parent="1">
          <mxGeometry x="380" y="760" width="121" height="80" as="geometry" />
        </mxCell>
        <mxCell id="G5POx0429s6_4OjcIg4M-8" value="SIM" style="text;html=1;align=center;verticalAlign=middle;resizable=0;points=[];autosize=1;strokeColor=none;fillColor=none;" vertex="1" parent="1">
          <mxGeometry x="510" y="618" width="40" height="30" as="geometry" />
        </mxCell>
        <mxCell id="G5POx0429s6_4OjcIg4M-31" style="edgeStyle=orthogonalEdgeStyle;rounded=0;orthogonalLoop=1;jettySize=auto;html=1;exitX=1;exitY=0.5;exitDx=0;exitDy=0;" edge="1" parent="1" source="G5POx0429s6_4OjcIg4M-10">
          <mxGeometry relative="1" as="geometry">
            <mxPoint x="750" y="800.3333333333335" as="targetPoint" />
          </mxGeometry>
        </mxCell>
        <mxCell id="G5POx0429s6_4OjcIg4M-10" value="Defina a velocidade para 40 km/h&amp;nbsp;" style="whiteSpace=wrap;html=1;" vertex="1" parent="1">
          <mxGeometry x="581.5" y="770" width="120" height="60" as="geometry" />
        </mxCell>
        <mxCell id="G5POx0429s6_4OjcIg4M-17" value="" style="edgeStyle=orthogonalEdgeStyle;rounded=0;orthogonalLoop=1;jettySize=auto;html=1;" edge="1" parent="1" source="G5POx0429s6_4OjcIg4M-12" target="G5POx0429s6_4OjcIg4M-16">
          <mxGeometry relative="1" as="geometry" />
        </mxCell>
        <mxCell id="G5POx0429s6_4OjcIg4M-20" value="" style="edgeStyle=orthogonalEdgeStyle;rounded=0;orthogonalLoop=1;jettySize=auto;html=1;" edge="1" parent="1" source="G5POx0429s6_4OjcIg4M-12" target="G5POx0429s6_4OjcIg4M-19">
          <mxGeometry relative="1" as="geometry" />
        </mxCell>
        <mxCell id="G5POx0429s6_4OjcIg4M-12" value="18:01-22:00" style="rhombus;whiteSpace=wrap;html=1;" vertex="1" parent="1">
          <mxGeometry x="380" y="920" width="121" height="80" as="geometry" />
        </mxCell>
        <mxCell id="G5POx0429s6_4OjcIg4M-14" value="SIM" style="text;html=1;align=center;verticalAlign=middle;resizable=0;points=[];autosize=1;strokeColor=none;fillColor=none;" vertex="1" parent="1">
          <mxGeometry x="520" y="780" width="40" height="30" as="geometry" />
        </mxCell>
        <mxCell id="G5POx0429s6_4OjcIg4M-15" value="NÃO" style="text;html=1;align=center;verticalAlign=middle;resizable=0;points=[];autosize=1;strokeColor=none;fillColor=none;" vertex="1" parent="1">
          <mxGeometry x="413" y="870" width="50" height="30" as="geometry" />
        </mxCell>
        <mxCell id="G5POx0429s6_4OjcIg4M-32" style="edgeStyle=orthogonalEdgeStyle;rounded=0;orthogonalLoop=1;jettySize=auto;html=1;exitX=1;exitY=0.5;exitDx=0;exitDy=0;" edge="1" parent="1" source="G5POx0429s6_4OjcIg4M-16">
          <mxGeometry relative="1" as="geometry">
            <mxPoint x="750" y="960.3333333333335" as="targetPoint" />
          </mxGeometry>
        </mxCell>
        <mxCell id="G5POx0429s6_4OjcIg4M-16" value="Defina a velocidade para 25 km/h&amp;nbsp;" style="whiteSpace=wrap;html=1;" vertex="1" parent="1">
          <mxGeometry x="581.5" y="930" width="120" height="60" as="geometry" />
        </mxCell>
        <mxCell id="G5POx0429s6_4OjcIg4M-18" value="Sim" style="text;html=1;align=center;verticalAlign=middle;resizable=0;points=[];autosize=1;strokeColor=none;fillColor=none;" vertex="1" parent="1">
          <mxGeometry x="510" y="928" width="40" height="30" as="geometry" />
        </mxCell>
        <mxCell id="G5POx0429s6_4OjcIg4M-23" value="" style="edgeStyle=orthogonalEdgeStyle;rounded=0;orthogonalLoop=1;jettySize=auto;html=1;" edge="1" parent="1" source="G5POx0429s6_4OjcIg4M-19" target="G5POx0429s6_4OjcIg4M-22">
          <mxGeometry relative="1" as="geometry" />
        </mxCell>
        <mxCell id="G5POx0429s6_4OjcIg4M-44" style="edgeStyle=orthogonalEdgeStyle;rounded=0;orthogonalLoop=1;jettySize=auto;html=1;exitX=0.5;exitY=1;exitDx=0;exitDy=0;" edge="1" parent="1" source="G5POx0429s6_4OjcIg4M-19">
          <mxGeometry relative="1" as="geometry">
            <mxPoint x="440.3333333333335" y="1250" as="targetPoint" />
          </mxGeometry>
        </mxCell>
        <mxCell id="G5POx0429s6_4OjcIg4M-19" value="22:01-00:00" style="rhombus;whiteSpace=wrap;html=1;" vertex="1" parent="1">
          <mxGeometry x="380" y="1080" width="121" height="80" as="geometry" />
        </mxCell>
        <mxCell id="G5POx0429s6_4OjcIg4M-21" value="NÃO" style="text;html=1;align=center;verticalAlign=middle;resizable=0;points=[];autosize=1;strokeColor=none;fillColor=none;" vertex="1" parent="1">
          <mxGeometry x="413" y="1020" width="50" height="30" as="geometry" />
        </mxCell>
        <mxCell id="G5POx0429s6_4OjcIg4M-43" style="edgeStyle=orthogonalEdgeStyle;rounded=0;orthogonalLoop=1;jettySize=auto;html=1;exitX=0.5;exitY=1;exitDx=0;exitDy=0;" edge="1" parent="1" source="G5POx0429s6_4OjcIg4M-22">
          <mxGeometry relative="1" as="geometry">
            <mxPoint x="641.166666666667" y="1200" as="targetPoint" />
          </mxGeometry>
        </mxCell>
        <mxCell id="G5POx0429s6_4OjcIg4M-45" style="edgeStyle=orthogonalEdgeStyle;rounded=0;orthogonalLoop=1;jettySize=auto;html=1;exitX=1;exitY=0.5;exitDx=0;exitDy=0;" edge="1" parent="1" source="G5POx0429s6_4OjcIg4M-22">
          <mxGeometry relative="1" as="geometry">
            <mxPoint x="750" y="1120.3333333333335" as="targetPoint" />
          </mxGeometry>
        </mxCell>
        <mxCell id="G5POx0429s6_4OjcIg4M-22" value="&#xa;&lt;span style=&quot;color: rgb(0, 0, 0); font-family: Helvetica; font-size: 12px; font-style: normal; font-variant-ligatures: normal; font-variant-caps: normal; font-weight: 400; letter-spacing: normal; orphans: 2; text-align: center; text-indent: 0px; text-transform: none; widows: 2; word-spacing: 0px; -webkit-text-stroke-width: 0px; background-color: rgb(251, 251, 251); text-decoration-thickness: initial; text-decoration-style: initial; text-decoration-color: initial; float: none; display: inline !important;&quot;&gt;Defina a velocidade para 45 km/h&lt;/span&gt;&#xa;&#xa;" style="whiteSpace=wrap;html=1;" vertex="1" parent="1">
          <mxGeometry x="581.5" y="1090" width="120" height="60" as="geometry" />
        </mxCell>
        <mxCell id="G5POx0429s6_4OjcIg4M-24" value="Sim" style="text;html=1;align=center;verticalAlign=middle;resizable=0;points=[];autosize=1;strokeColor=none;fillColor=none;" vertex="1" parent="1">
          <mxGeometry x="500" y="1088" width="40" height="30" as="geometry" />
        </mxCell>
        <mxCell id="G5POx0429s6_4OjcIg4M-33" value="" style="edgeStyle=orthogonalEdgeStyle;rounded=0;orthogonalLoop=1;jettySize=auto;html=1;" edge="1" parent="1" source="OLgAGGB-klX2j8NWGAoB-1" target="G5POx0429s6_4OjcIg4M-3">
          <mxGeometry relative="1" as="geometry">
            <mxPoint x="440" y="519" as="sourcePoint" />
            <mxPoint x="441" y="600" as="targetPoint" />
          </mxGeometry>
        </mxCell>
        <mxCell id="G5POx0429s6_4OjcIg4M-3" value="NÃO" style="text;html=1;align=center;verticalAlign=middle;resizable=0;points=[];autosize=1;strokeColor=none;fillColor=none;" vertex="1" parent="1">
          <mxGeometry x="415" y="538" width="50" height="30" as="geometry" />
        </mxCell>
        <mxCell id="G5POx0429s6_4OjcIg4M-34" value="" style="edgeStyle=orthogonalEdgeStyle;rounded=0;orthogonalLoop=1;jettySize=auto;html=1;" edge="1" parent="1" source="OLgAGGB-klX2j8NWGAoB-4" target="G5POx0429s6_4OjcIg4M-9">
          <mxGeometry relative="1" as="geometry">
            <mxPoint x="441" y="680" as="sourcePoint" />
            <mxPoint x="441" y="760" as="targetPoint" />
          </mxGeometry>
        </mxCell>
        <mxCell id="G5POx0429s6_4OjcIg4M-9" value="NÃO" style="text;html=1;align=center;verticalAlign=middle;resizable=0;points=[];autosize=1;strokeColor=none;fillColor=none;" vertex="1" parent="1">
          <mxGeometry x="415.5" y="710" width="50" height="30" as="geometry" />
        </mxCell>
        <mxCell id="G5POx0429s6_4OjcIg4M-39" value="NÃO" style="text;html=1;align=center;verticalAlign=middle;resizable=0;points=[];autosize=1;strokeColor=none;fillColor=none;" vertex="1" parent="1">
          <mxGeometry x="413" y="1187" width="50" height="30" as="geometry" />
        </mxCell>
      </root>
    </mxGraphModel>
  </diagram>
</mxfile>
